<?xml version="1.0" encoding="UTF-8"?>
<svg version="1.1" xmlns="http://www.w3.org/2000/svg" width="1500" height="640">
<path d="M0 0 C10.00667993 -0.00174054 20.01335787 -0.00524632 30.02003692 -0.00972307 C43.69519422 -0.01578083 57.37034422 -0.01801462 71.04550242 -0.01354825 C77.462807 -0.01148428 83.88010451 -0.01066198 90.29740894 -0.01402742 C160.13099027 -0.04646247 160.13099027 -0.04646247 189.52937686 2.49711341 C190.31347934 2.5624729 191.09758182 2.6278324 191.90544498 2.69517249 C214.79840622 4.60797998 237.31182926 6.532656 257.65437686 18.12211341 C258.48324405 18.59133216 259.31211124 19.06055091 260.16609561 19.54398841 C262.04423475 20.65841652 263.85880312 21.87902389 265.65437686 23.12211341 C265.65437686 23.78211341 265.65437686 24.44211341 265.65437686 25.12211341 C266.58250186 25.49336341 266.58250186 25.49336341 267.52937686 25.87211341 C270.00506373 27.3283998 270.60562689 28.50023847 271.65437686 31.12211341 C272.31437686 31.12211341 272.97437686 31.12211341 273.65437686 31.12211341 C273.65437686 31.78211341 273.65437686 32.44211341 273.65437686 33.12211341 C274.64437686 33.45211341 275.63437686 33.78211341 276.65437686 34.12211341 C276.65437686 34.78211341 276.65437686 35.44211341 276.65437686 36.12211341 C277.31437686 36.12211341 277.97437686 36.12211341 278.65437686 36.12211341 C278.98437686 37.11211341 279.31437686 38.10211341 279.65437686 39.12211341 C280.50000186 39.96773841 281.34562686 40.81336341 282.21687686 41.68461341 C283.02125186 42.48898841 283.82562686 43.29336341 284.65437686 44.12211341 C284.65437686 44.78211341 284.65437686 45.44211341 284.65437686 46.12211341 C285.31437686 46.12211341 285.97437686 46.12211341 286.65437686 46.12211341 C286.98437686 47.77211341 287.31437686 49.42211341 287.65437686 51.12211341 C288.31437686 51.12211341 288.97437686 51.12211341 289.65437686 51.12211341 C293.76181087 58.82165759 295.48686456 65.39624535 295.65437686 74.12211341 C296.31437686 74.12211341 296.97437686 74.12211341 297.65437686 74.12211341 C297.7051417 81.70265068 297.7401378 89.283144 297.76424015 96.86381263 C297.77428948 99.44195429 297.78793113 102.02008458 297.80525577 104.59818763 C297.82955054 108.3067123 297.84087082 112.01508609 297.84968936 115.72367591 C297.86001194 116.87389228 297.87033451 118.02410865 297.88096988 119.20918006 C297.88172517 124.61233461 297.76102037 129.06035894 295.65437686 134.12211341 C295.27906241 136.44906304 294.93520484 138.78188026 294.65437686 141.12211341 C293.99437686 141.12211341 293.33437686 141.12211341 292.65437686 141.12211341 C292.46875186 142.73086341 292.46875186 142.73086341 292.27937686 144.37211341 C291.75793751 147.50074956 291.25349432 149.45691764 289.65437686 152.12211341 C288.99437686 152.12211341 288.33437686 152.12211341 287.65437686 152.12211341 C287.32437686 153.77211341 286.99437686 155.42211341 286.65437686 157.12211341 C285.99437686 157.12211341 285.33437686 157.12211341 284.65437686 157.12211341 C284.46875186 157.78211341 284.28312686 158.44211341 284.09187686 159.12211341 C279.13278332 169.47152602 268.67249382 177.11839939 258.71687686 182.24711341 C257.8913129 182.67451819 257.06574893 183.10192298 256.21516788 183.54227942 C245.49998125 188.91063198 234.46962814 191.77898103 222.71687686 193.87211341 C221.75382633 194.04601599 221.75382633 194.04601599 220.77132022 194.22343177 C204.27310732 196.84248068 187.23698054 196.2579827 170.59407413 196.21976966 C168.11122023 196.21784529 165.62836594 196.21638395 163.14551151 196.21534461 C157.80949046 196.21219569 152.47348584 196.20605134 147.13747203 196.1972782 C139.28896908 196.18448632 131.44047105 196.17858947 123.59195935 196.17434484 C110.67534263 196.16727978 97.75873212 196.15651343 84.84212101 196.14262122 C83.68561499 196.1413795 83.68561499 196.1413795 82.50574522 196.1401127 C74.80255295 196.1317998 67.09936107 196.12313977 59.39616936 196.1143179 C38.52079589 196.09044413 17.64542537 196.07052287 -3.22995993 196.06068265 C-5.47064032 196.05961153 -7.71132064 196.05844523 -9.95200098 196.05727738 C-59.10843494 196.0329141 -108.25682201 196.30526809 -157.41111386 196.75513953 C-162.35762591 196.80040419 -167.3041387 196.84558661 -172.25065243 196.89066809 C-174.03735643 196.90700887 -174.03735643 196.90700887 -175.86015546 196.92367977 C-207.66029931 197.21254667 -239.4590644 197.27879869 -271.2603265 197.25088614 C-276.21844587 197.24667 -281.17656483 197.24496994 -286.13468564 197.24342078 C-358.37907919 197.21809313 -430.62334587 196.97860525 -502.86726803 196.73183864 C-510.6305674 196.70536326 -518.39386793 196.67941199 -526.15717328 196.65474433 C-526.92292465 196.65231116 -527.68867603 196.649878 -528.47763199 196.6473711 C-530.02014743 196.64247274 -531.56266286 196.63757491 -533.1051783 196.63267759 C-547.20522678 196.58786175 -561.30525683 196.53948012 -575.40527314 196.48543549 C-582.30147442 196.45905948 -589.19767325 196.43401505 -596.09389317 196.41300505 C-602.49058635 196.39331949 -608.88724746 196.36916159 -615.28391147 196.34161466 C-617.59978091 196.33236996 -619.91565712 196.32465666 -622.23153734 196.31869644 C-632.97664066 196.29016223 -643.70359262 196.19230676 -654.43778622 195.67495459 C-655.63936627 195.61791668 -655.63936627 195.61791668 -656.86522067 195.55972648 C-663.4982132 195.20054547 -669.91605794 194.22130505 -676.40812314 192.80961341 C-677.4181036 192.60916419 -678.42808407 192.40871497 -679.46867001 192.20219153 C-689.17679429 190.18564867 -698.31023586 187.03901856 -707.03312314 182.30961341 C-707.66742245 181.96849524 -708.30172177 181.62737708 -708.95524228 181.275922 C-713.90134133 178.535199 -718.65820657 175.48104034 -722.34562314 171.12211341 C-722.34562314 170.46211341 -722.34562314 169.80211341 -722.34562314 169.12211341 C-722.90765439 168.92617591 -723.46968564 168.73023841 -724.04874814 168.52836341 C-727.28119851 166.54931216 -729.03513044 163.7162083 -731.09562314 160.62211341 C-731.50683407 160.02785559 -731.91804501 159.43359778 -732.34171689 158.82133216 C-735.34562314 154.4003007 -735.34562314 154.4003007 -735.34562314 152.12211341 C-736.00562314 152.12211341 -736.66562314 152.12211341 -737.34562314 152.12211341 C-737.67562314 149.81211341 -738.00562314 147.50211341 -738.34562314 145.12211341 C-739.00562314 145.12211341 -739.66562314 145.12211341 -740.34562314 145.12211341 C-741.97412283 140.76620773 -742.68680759 136.88276729 -742.97062314 132.24711341 C-743.04538876 131.09469153 -743.12015439 129.94226966 -743.19718564 128.75492591 C-743.24617001 127.88609778 -743.29515439 127.01726966 -743.34562314 126.12211341 C-744.00562314 126.12211341 -744.66562314 126.12211341 -745.34562314 126.12211341 C-745.39643036 119.53848816 -745.43140178 112.9549137 -745.45548642 106.37113684 C-745.46552946 104.13251085 -745.47916645 101.89389793 -745.49650204 99.65531653 C-745.52082471 96.43327846 -745.53212339 93.2114142 -745.54093564 89.98930091 C-745.55125821 88.99220099 -745.56158078 87.99510108 -745.57221615 86.96778601 C-745.57302691 81.91996669 -745.29368007 77.86276063 -743.34562314 73.12211341 C-742.91261437 70.84305588 -742.91261437 70.84305588 -742.72062314 68.74711341 C-742.59687314 67.55086341 -742.47312314 66.35461341 -742.34562314 65.12211341 C-741.68562314 65.12211341 -741.02562314 65.12211341 -740.34562314 65.12211341 C-740.34562314 63.47211341 -740.34562314 61.82211341 -740.34562314 60.12211341 C-739.68562314 60.12211341 -739.02562314 60.12211341 -738.34562314 60.12211341 C-737.85062314 57.15211341 -737.85062314 57.15211341 -737.34562314 54.12211341 C-736.68562314 54.12211341 -736.02562314 54.12211341 -735.34562314 54.12211341 C-734.88156064 52.69898841 -734.88156064 52.69898841 -734.40812314 51.24711341 C-733.34562314 48.12211341 -733.34562314 48.12211341 -732.34562314 46.12211341 C-731.68562314 46.12211341 -731.02562314 46.12211341 -730.34562314 46.12211341 C-730.01562314 44.80211341 -729.68562314 43.48211341 -729.34562314 42.12211341 C-728.68562314 42.12211341 -728.02562314 42.12211341 -727.34562314 42.12211341 C-727.03624814 41.50336341 -726.72687314 40.88461341 -726.40812314 40.24711341 C-725.72062314 38.87211341 -725.03312314 37.49711341 -724.34562314 36.12211341 C-723.68562314 36.12211341 -723.02562314 36.12211341 -722.34562314 36.12211341 C-722.01562314 35.13211341 -721.68562314 34.14211341 -721.34562314 33.12211341 C-719.90812314 31.43461341 -719.90812314 31.43461341 -718.34562314 30.12211341 C-717.68562314 30.12211341 -717.02562314 30.12211341 -716.34562314 30.12211341 C-716.34562314 29.46211341 -716.34562314 28.80211341 -716.34562314 28.12211341 C-700.97168438 15.58290423 -683.17917993 8.45600558 -663.59562314 5.99711341 C-662.33572567 5.83171057 -661.07582821 5.66630774 -659.77775204 5.4958927 C-635.98035633 2.45866055 -612.04734192 0.97835271 -588.0625726 0.96389502 C-586.41155205 0.95931002 -584.76053263 0.95430699 -583.10951447 0.94893038 C-578.62177423 0.93551259 -574.13404145 0.92797408 -569.64628655 0.92150322 C-564.76239722 0.91340335 -559.87852279 0.89973268 -554.99464428 0.88680953 C-545.37660649 0.86223773 -535.75856479 0.84280381 -526.14051223 0.82507093 C-514.731484 0.80382542 -503.32246977 0.7772571 -491.91345306 0.75062981 C-468.58964807 0.69644288 -445.26583228 0.64910481 -421.94200778 0.60421073 C-405.3807163 0.57231631 -388.81942843 0.53900472 -372.25814235 0.50441602 C-261.10792445 0.27234472 -149.95755442 0.05923664 0 0 Z " fill="#F07988" transform="translate(873.3456231355667,211.87788659334183)"/>
</svg>
